<svg xmlns="http://www.w3.org/2000/svg" xmlns:xlink="http://www.w3.org/1999/xlink" width="500" zoomAndPan="magnify" viewBox="0 0 375 374.999991" height="500" preserveAspectRatio="xMidYMid meet" version="1.0"><defs><clipPath id="4aaf3116b3"><path d="M 216 193 L 252.527344 193 L 252.527344 220 L 216 220 Z M 216 193 " clip-rule="nonzero"/></clipPath><clipPath id="e31b6493ac"><path d="M 160 148.101562 L 214 148.101562 L 214 189 L 160 189 Z M 160 148.101562 " clip-rule="nonzero"/></clipPath><clipPath id="dc9ea6f00b"><path d="M 157 188 L 218 188 L 218 226.851562 L 157 226.851562 Z M 157 188 " clip-rule="nonzero"/></clipPath></defs><g clip-path="url(#4aaf3116b3)"><path fill="#004aad" d="M 238.074219 193.082031 C 232.757812 205.957031 234.984375 200.570312 233.128906 205.066406 C 232.8125 203.101562 232.796875 202.984375 232.484375 201.019531 C 232.648438 200.617188 232.625 200.671875 232.695312 200.492188 C 232.796875 199.242188 233.261719 198.164062 233.71875 197.386719 C 234.070312 196.796875 233.632812 196.046875 232.949219 196.046875 C 226.21875 196.046875 229.714844 196.652344 230.023438 200.492188 C 230.09375 200.664062 230.070312 200.609375 230.242188 201.019531 C 229.929688 202.984375 229.90625 203.101562 229.589844 205.066406 C 228.378906 202.132812 229.039062 203.730469 224.644531 193.082031 C 221.160156 194.988281 218.566406 196.363281 216.617188 197.535156 C 217.015625 198.007812 217.378906 198.5 217.699219 199.027344 C 219.988281 202.707031 220.121094 207.105469 220.390625 215.855469 L 220.414062 216.679688 C 220.4375 217.5625 220.367188 218.425781 220.210938 219.269531 L 245.742188 219.269531 C 249.390625 219.269531 252.324219 216.257812 252.210938 212.601562 C 251.804688 199.226562 252.046875 200.703125 238.074219 193.082031 " fill-opacity="1" fill-rule="nonzero"/></g><path fill="#004aad" d="M 221.460938 169.132812 C 226.390625 172.625 236.484375 172.507812 241.242188 169.132812 L 241.242188 171.5 C 236.542969 175.125 226.75 175.582031 221.445312 171.5 Z M 239.570312 180.3125 C 239.726562 180.171875 240.085938 179.644531 240.207031 179.441406 C 240.714844 180.714844 240.683594 181.902344 239.609375 182.757812 C 239.679688 181.949219 239.679688 181.125 239.570312 180.3125 C 238.796875 186.101562 235.179688 191.480469 231.445312 191.480469 C 227.324219 191.480469 223.859375 185.316406 223.183594 180.28125 C 223.070312 181.117188 223.078125 181.972656 223.15625 182.808594 C 221.980469 181.902344 221.988281 180.621094 222.585938 179.277344 C 222.765625 179.621094 222.960938 179.960938 223.183594 180.28125 C 223.308594 179.15625 223.566406 178.066406 223.90625 176.996094 C 228.496094 178.617188 234.378906 178.59375 238.929688 176.949219 C 239.433594 178.511719 239.640625 179.953125 239.570312 180.3125 Z M 214.5 173.914062 C 214.5 171.996094 214.5 170.761719 214.5 168.839844 C 215.632812 169.085938 218.722656 169.746094 219.722656 169.957031 L 219.722656 169.972656 L 219.730469 169.980469 C 219.730469 171.089844 219.730469 169.257812 219.730469 174.746094 C 220.257812 175.171875 220.855469 175.550781 221.484375 175.902344 C 221.5625 176.4375 221.679688 176.980469 221.851562 177.53125 C 219.613281 181.179688 221.082031 183.835938 223.457031 184.625 C 226.003906 195.5625 236.792969 196.054688 239.332031 184.597656 C 241.746094 183.679688 242.972656 181.132812 240.992188 177.742188 C 241.203125 177.105469 241.34375 176.453125 241.449219 175.785156 C 242 175.460938 242.515625 175.125 242.988281 174.746094 C 242.988281 169.382812 242.988281 171.175781 242.988281 169.957031 C 243.617188 169.824219 248.367188 168.800781 249.027344 168.667969 C 237.066406 166.097656 245.222656 167.851562 231.351562 164.878906 C 230.414062 165.074219 226.679688 165.878906 213.675781 168.667969 L 213.808594 168.691406 C 213.808594 170.445312 213.808594 171.875 213.808594 173.882812 C 213.328125 174.226562 212.496094 174.960938 212.496094 175.808594 C 212.496094 176.996094 213.226562 177.945312 214.132812 177.945312 C 215.035156 177.945312 215.773438 176.996094 215.773438 175.808594 C 215.773438 174.984375 214.988281 174.273438 214.5 173.914062 " fill-opacity="1" fill-rule="nonzero"/><path fill="#004aad" d="M 146.003906 205.066406 C 145.691406 203.101562 145.667969 202.984375 145.351562 201.019531 C 145.515625 200.617188 145.492188 200.671875 145.574219 200.492188 C 145.675781 199.242188 146.128906 198.164062 146.59375 197.386719 C 146.941406 196.796875 146.507812 196.046875 145.816406 196.046875 C 139.09375 196.046875 142.59375 196.652344 142.898438 200.492188 C 142.96875 200.664062 142.945312 200.609375 143.109375 201.019531 C 142.796875 202.984375 142.78125 203.101562 142.464844 205.066406 C 141.253906 202.132812 141.917969 203.730469 137.519531 193.082031 C 122.824219 201.097656 123.777344 199.910156 123.382812 212.601562 C 123.273438 216.257812 126.207031 219.269531 129.855469 219.269531 L 155.386719 219.269531 C 155.226562 218.425781 155.15625 217.5625 155.179688 216.679688 C 155.210938 215.613281 155.242188 214.605469 155.269531 213.667969 C 155.457031 206.253906 155.558594 202.171875 158.214844 198.5625 C 158.476562 198.203125 158.765625 197.855469 159.082031 197.519531 C 157.125 196.363281 154.496094 195.019531 150.949219 193.082031 C 145.636719 205.957031 147.859375 200.570312 146.003906 205.066406 " fill-opacity="1" fill-rule="nonzero"/><path fill="#004aad" d="M 134.328125 169.132812 C 139.257812 172.625 149.355469 172.507812 154.121094 169.132812 L 154.121094 171.5 C 149.410156 175.125 139.628906 175.582031 134.320312 171.5 Z M 152.445312 180.3125 C 151.675781 186.101562 148.058594 191.480469 144.3125 191.480469 C 140.195312 191.480469 136.726562 185.316406 136.058594 180.28125 C 135.949219 181.117188 135.949219 181.972656 136.027344 182.808594 C 134.847656 181.902344 134.863281 180.621094 135.453125 179.277344 C 135.640625 179.621094 135.835938 179.960938 136.058594 180.28125 C 136.183594 179.15625 136.433594 178.066406 136.78125 176.996094 C 141.367188 178.617188 147.253906 178.59375 151.800781 176.949219 C 152.304688 178.511719 152.515625 179.953125 152.445312 180.3125 Z M 127 177.945312 C 127.910156 177.945312 128.644531 176.996094 128.644531 175.808594 C 128.644531 174.984375 127.855469 174.273438 127.378906 173.914062 C 127.378906 171.996094 127.378906 170.761719 127.378906 168.839844 C 128.5 169.085938 131.589844 169.746094 132.597656 169.957031 L 132.597656 169.972656 L 132.605469 169.980469 C 132.605469 171.089844 132.605469 169.257812 132.605469 174.746094 C 133.132812 175.171875 133.730469 175.550781 134.359375 175.902344 C 134.429688 176.4375 134.546875 176.980469 134.730469 177.53125 C 132.480469 181.179688 133.957031 183.835938 136.324219 184.625 C 138.875 195.5625 149.660156 196.054688 152.199219 184.597656 C 154.621094 183.679688 155.847656 181.132812 153.859375 177.742188 C 154.074219 177.105469 154.222656 176.453125 154.316406 175.785156 C 154.867188 175.460938 155.394531 175.125 155.859375 174.746094 C 155.859375 169.382812 155.859375 171.175781 155.859375 169.957031 C 156.496094 169.824219 161.242188 168.800781 161.894531 168.667969 C 149.945312 166.097656 158.089844 167.851562 144.21875 164.878906 C 143.285156 165.074219 139.558594 165.878906 126.550781 168.667969 L 126.683594 168.691406 C 126.683594 170.445312 126.683594 171.875 126.683594 173.882812 C 126.207031 174.226562 125.363281 174.960938 125.363281 175.808594 C 125.363281 176.996094 126.09375 177.945312 127 177.945312 " fill-opacity="1" fill-rule="nonzero"/><g clip-path="url(#e31b6493ac)"><path fill="#ffbd59" d="M 173.628906 154.578125 C 180.679688 159.570312 195.125 159.40625 201.933594 154.578125 L 201.941406 157.96875 C 195.203125 163.15625 181.199219 163.808594 173.613281 157.96875 Z M 199.546875 170.578125 C 199.765625 170.367188 200.277344 169.613281 200.449219 169.328125 C 201.1875 171.144531 201.140625 172.851562 199.601562 174.078125 C 199.703125 172.914062 199.695312 171.726562 199.546875 170.578125 C 198.4375 178.851562 193.261719 186.550781 187.914062 186.550781 C 182.019531 186.550781 177.054688 177.726562 176.097656 170.523438 C 175.941406 171.71875 175.949219 172.953125 176.058594 174.132812 C 174.375 172.84375 174.390625 171.011719 175.238281 169.09375 C 175.5 169.589844 175.78125 170.070312 176.097656 170.523438 C 176.277344 168.929688 176.640625 167.355469 177.136719 165.824219 C 183.699219 168.140625 192.113281 168.109375 198.625 165.765625 C 199.339844 167.992188 199.640625 170.058594 199.546875 170.578125 Z M 163.148438 167.199219 C 164.445312 167.199219 165.488281 165.824219 165.488281 164.125 C 165.488281 162.945312 164.375 161.9375 163.679688 161.417969 C 163.679688 158.675781 163.679688 156.914062 163.679688 154.160156 C 165.292969 154.507812 169.710938 155.457031 171.144531 155.757812 L 171.144531 155.789062 L 171.160156 155.796875 C 171.160156 157.378906 171.160156 154.75 171.160156 162.605469 C 171.914062 163.21875 172.761719 163.761719 173.667969 164.265625 C 173.777344 165.027344 173.941406 165.796875 174.195312 166.59375 C 170.984375 171.8125 173.101562 175.613281 176.484375 176.746094 L 176.492188 176.734375 C 180.132812 192.390625 195.566406 193.089844 199.199219 176.703125 C 202.660156 175.390625 204.414062 171.742188 201.574219 166.890625 C 201.871094 165.988281 202.078125 165.050781 202.226562 164.09375 C 203.011719 163.636719 203.757812 163.15625 204.429688 162.605469 C 204.429688 154.949219 204.429688 157.511719 204.429688 155.757812 C 205.332031 155.5625 212.132812 154.105469 213.070312 153.910156 C 195.960938 150.238281 207.621094 152.738281 187.78125 148.492188 C 186.445312 148.773438 181.105469 149.921875 162.5 153.910156 L 162.691406 153.949219 C 162.691406 156.449219 162.691406 158.507812 162.691406 161.371094 C 162.007812 161.867188 160.804688 162.90625 160.804688 164.125 C 160.804688 165.824219 161.847656 167.199219 163.148438 167.199219 " fill-opacity="1" fill-rule="nonzero"/></g><g clip-path="url(#dc9ea6f00b)"><path fill="#ffbd59" d="M 214.265625 199.089844 C 211.636719 196.191406 206.738281 193.933594 197.40625 188.84375 C 189.800781 207.269531 192.988281 199.554688 190.328125 205.988281 C 189.875 203.171875 189.851562 203.015625 189.402344 200.191406 C 189.636719 199.617188 189.605469 199.695312 189.714844 199.4375 C 189.859375 197.652344 190.519531 196.117188 191.171875 195.003906 C 191.675781 194.152344 191.046875 193.082031 190.0625 193.082031 C 180.4375 193.082031 185.445312 193.957031 185.878906 199.4375 C 185.988281 199.6875 185.957031 199.609375 186.195312 200.191406 C 185.746094 203.015625 185.722656 203.171875 185.265625 205.988281 C 183.535156 201.796875 184.472656 204.070312 178.1875 188.84375 C 169.019531 193.847656 164.113281 196.339844 161.441406 199.074219 C 157.988281 202.605469 158.289062 206.53125 157.972656 216.765625 C 157.941406 217.632812 158.050781 218.464844 158.246094 219.269531 C 159.238281 223.300781 162.863281 226.304688 167.226562 226.304688 L 208.367188 226.304688 C 212.730469 226.304688 216.355469 223.300781 217.347656 219.269531 C 217.542969 218.464844 217.652344 217.632812 217.621094 216.765625 C 217.316406 206.5625 217.269531 202.402344 214.265625 199.089844 " fill-opacity="1" fill-rule="nonzero"/></g></svg>