<svg xmlns="http://www.w3.org/2000/svg" xmlns:xlink="http://www.w3.org/1999/xlink" width="500" zoomAndPan="magnify" viewBox="0 0 375 374.999991" height="500" preserveAspectRatio="xMidYMid meet" version="1.0"><path fill="#004aad" d="M 334.039062 203.679688 C 318.640625 240.972656 325.085938 225.367188 319.710938 238.398438 C 318.796875 232.703125 318.753906 232.359375 317.839844 226.664062 C 318.320312 225.503906 318.25 225.664062 318.457031 225.140625 C 318.753906 221.515625 320.097656 218.394531 321.417969 216.140625 C 322.441406 214.433594 321.167969 212.269531 319.1875 212.269531 C 299.683594 212.269531 309.824219 214.023438 310.710938 225.140625 C 310.914062 225.640625 310.847656 225.480469 311.347656 226.664062 C 310.4375 232.359375 310.371094 232.703125 309.457031 238.398438 C 305.949219 229.902344 307.863281 234.523438 295.128906 203.679688 C 285.035156 209.191406 277.519531 213.179688 271.867188 216.574219 C 273.03125 217.941406 274.078125 219.375 275.011719 220.902344 C 281.640625 231.5625 282.027344 244.296875 282.804688 269.652344 L 282.871094 272.046875 C 282.941406 274.597656 282.734375 277.105469 282.28125 279.542969 L 356.25 279.542969 C 366.820312 279.542969 375.320312 270.816406 375 260.222656 C 373.816406 221.472656 374.523438 225.753906 334.039062 203.679688 " fill-opacity="1" fill-rule="nonzero"/><path fill="#004aad" d="M 285.902344 134.289062 C 300.1875 144.402344 329.4375 144.058594 343.21875 134.289062 L 343.21875 141.144531 C 329.597656 151.648438 301.234375 152.96875 285.855469 141.144531 Z M 338.367188 166.683594 C 338.824219 166.273438 339.871094 164.746094 340.210938 164.152344 C 341.695312 167.84375 341.601562 171.285156 338.480469 173.765625 C 338.6875 171.421875 338.6875 169.027344 338.367188 166.683594 C 336.136719 183.449219 325.65625 199.03125 314.835938 199.03125 C 302.898438 199.03125 292.851562 181.171875 290.890625 166.589844 C 290.570312 169.007812 290.59375 171.488281 290.824219 173.902344 C 287.40625 171.285156 287.429688 167.570312 289.160156 163.675781 C 289.683594 164.675781 290.253906 165.65625 290.890625 166.589844 C 291.253906 163.332031 292.007812 160.167969 292.988281 157.070312 C 306.292969 161.761719 323.332031 161.691406 336.523438 156.933594 C 337.980469 161.464844 338.574219 165.632812 338.367188 166.683594 Z M 265.742188 148.136719 C 265.742188 142.578125 265.742188 139.003906 265.742188 133.445312 C 269.019531 134.152344 277.972656 136.0625 280.867188 136.679688 L 280.867188 136.726562 L 280.890625 136.746094 C 280.890625 139.960938 280.890625 134.652344 280.890625 150.554688 C 282.417969 151.785156 284.148438 152.875 285.96875 153.902344 C 286.199219 155.449219 286.539062 157.023438 287.042969 158.617188 C 280.546875 169.1875 284.808594 176.886719 291.6875 179.167969 C 299.070312 210.855469 330.324219 212.289062 337.683594 179.097656 C 344.679688 176.433594 348.230469 169.050781 342.492188 159.234375 C 343.105469 157.386719 343.515625 155.496094 343.8125 153.558594 C 345.40625 152.625 346.910156 151.648438 348.277344 150.554688 C 348.277344 135.015625 348.277344 140.210938 348.277344 136.679688 C 350.101562 136.292969 363.859375 133.332031 365.773438 132.941406 C 331.121094 125.492188 354.746094 130.574219 314.5625 121.960938 C 311.851562 122.53125 301.027344 124.855469 263.347656 132.941406 L 263.734375 133.011719 C 263.734375 138.089844 263.734375 142.238281 263.734375 148.046875 C 262.347656 149.050781 259.929688 151.167969 259.929688 153.628906 C 259.929688 157.070312 262.050781 159.824219 264.667969 159.824219 C 267.289062 159.824219 269.429688 157.070312 269.429688 153.628906 C 269.429688 151.238281 267.152344 149.1875 265.742188 148.136719 " fill-opacity="1" fill-rule="nonzero"/><path fill="#004aad" d="M 67.292969 238.398438 C 66.378906 232.703125 66.3125 232.359375 65.402344 226.664062 C 65.878906 225.503906 65.8125 225.664062 66.039062 225.140625 C 66.335938 221.515625 67.65625 218.394531 69 216.140625 C 70.003906 214.433594 68.75 212.269531 66.746094 212.269531 C 47.265625 212.269531 57.40625 214.023438 58.292969 225.140625 C 58.5 225.640625 58.429688 225.480469 58.90625 226.664062 C 57.996094 232.359375 57.953125 232.703125 57.039062 238.398438 C 53.53125 229.902344 55.445312 234.523438 42.710938 203.679688 C 0.132812 226.894531 2.890625 223.453125 1.75 260.222656 C 1.429688 270.816406 9.929688 279.542969 20.5 279.542969 L 94.46875 279.542969 C 94.015625 277.105469 93.808594 274.597656 93.878906 272.046875 C 93.96875 268.949219 94.058594 266.03125 94.128906 263.320312 C 94.675781 241.839844 94.972656 230.015625 102.671875 219.558594 C 103.421875 218.511719 104.265625 217.507812 105.175781 216.527344 C 99.503906 213.179688 91.894531 209.285156 81.621094 203.679688 C 66.222656 240.972656 72.667969 225.367188 67.292969 238.398438 " fill-opacity="1" fill-rule="nonzero"/><path fill="#004aad" d="M 33.460938 134.289062 C 47.746094 144.402344 76.996094 144.058594 90.800781 134.289062 L 90.800781 141.144531 C 77.15625 151.648438 48.816406 152.96875 33.4375 141.144531 Z M 85.949219 166.683594 C 83.71875 183.449219 73.238281 199.03125 62.394531 199.03125 C 50.457031 199.03125 40.410156 181.171875 38.472656 166.589844 C 38.152344 169.007812 38.152344 171.488281 38.382812 173.902344 C 34.964844 171.285156 35.011719 167.570312 36.71875 163.675781 C 37.265625 164.675781 37.835938 165.65625 38.472656 166.589844 C 38.835938 163.332031 39.566406 160.167969 40.570312 157.070312 C 53.851562 161.761719 70.914062 161.691406 84.082031 156.933594 C 85.539062 161.464844 86.15625 165.632812 85.949219 166.683594 Z M 12.230469 159.824219 C 14.871094 159.824219 16.992188 157.070312 16.992188 153.628906 C 16.992188 151.238281 14.710938 149.1875 13.324219 148.136719 C 13.324219 142.578125 13.324219 139.003906 13.324219 133.445312 C 16.582031 134.152344 25.535156 136.0625 28.449219 136.679688 L 28.449219 136.726562 L 28.472656 136.746094 C 28.472656 139.960938 28.472656 134.652344 28.472656 150.554688 C 30 151.785156 31.730469 152.875 33.550781 153.902344 C 33.757812 155.449219 34.097656 157.023438 34.625 158.617188 C 28.109375 169.1875 32.390625 176.886719 39.246094 179.167969 C 46.628906 210.855469 77.886719 212.289062 85.242188 179.097656 C 92.261719 176.433594 95.8125 169.050781 90.050781 159.234375 C 90.664062 157.386719 91.097656 155.496094 91.371094 153.558594 C 92.964844 152.625 94.492188 151.648438 95.835938 150.554688 C 95.835938 135.015625 95.835938 140.210938 95.835938 136.679688 C 97.683594 136.292969 111.441406 133.332031 113.332031 132.941406 C 78.707031 125.492188 102.308594 130.574219 62.121094 121.960938 C 59.410156 122.53125 48.609375 124.855469 10.929688 132.941406 L 11.316406 133.011719 C 11.316406 138.089844 11.316406 142.238281 11.316406 148.046875 C 9.929688 149.050781 7.492188 151.167969 7.492188 153.628906 C 7.492188 157.070312 9.609375 159.824219 12.230469 159.824219 " fill-opacity="1" fill-rule="nonzero"/><path fill="#ffbd59" d="M 147.324219 92.117188 C 167.757812 106.585938 209.605469 106.105469 229.335938 92.117188 L 229.359375 101.9375 C 209.835938 116.972656 169.261719 118.863281 147.277344 101.9375 Z M 222.410156 138.480469 C 223.046875 137.863281 224.527344 135.675781 225.03125 134.855469 C 227.171875 140.121094 227.035156 145.0625 222.570312 148.617188 C 222.867188 145.246094 222.84375 141.804688 222.410156 138.480469 C 219.199219 162.445312 204.207031 184.746094 188.714844 184.746094 C 171.628906 184.746094 157.253906 159.1875 154.476562 138.320312 C 154.019531 141.78125 154.042969 145.359375 154.363281 148.777344 C 149.488281 145.039062 149.53125 139.730469 151.992188 134.171875 C 152.746094 135.609375 153.566406 137 154.476562 138.320312 C 155 133.695312 156.046875 129.136719 157.484375 124.695312 C 176.503906 131.417969 200.882812 131.324219 219.746094 124.535156 C 221.816406 130.984375 222.683594 136.976562 222.410156 138.480469 Z M 116.957031 128.683594 C 120.714844 128.683594 123.742188 124.695312 123.742188 119.777344 C 123.742188 116.359375 120.507812 113.441406 118.503906 111.9375 C 118.503906 103.988281 118.503906 98.886719 118.503906 90.910156 C 123.175781 91.914062 135.976562 94.671875 140.125 95.535156 L 140.125 95.628906 L 140.167969 95.648438 C 140.167969 100.230469 140.167969 92.621094 140.167969 115.378906 C 142.355469 117.15625 144.816406 118.726562 147.4375 120.183594 C 147.753906 122.394531 148.234375 124.628906 148.964844 126.929688 C 139.667969 142.054688 145.796875 153.058594 155.59375 156.339844 L 155.613281 156.316406 C 166.164062 201.675781 210.882812 203.703125 221.40625 156.226562 C 231.433594 152.421875 236.511719 141.851562 228.289062 127.792969 C 229.152344 125.175781 229.746094 122.464844 230.179688 119.683594 C 232.457031 118.363281 234.621094 116.972656 236.558594 115.378906 C 236.558594 93.191406 236.558594 100.617188 236.558594 95.535156 C 239.175781 94.964844 258.882812 90.753906 261.59375 90.183594 C 212.023438 79.542969 245.808594 86.789062 188.328125 74.484375 C 184.457031 75.304688 168.988281 78.632812 115.085938 90.183594 L 115.632812 90.296875 C 115.632812 97.539062 115.632812 103.507812 115.632812 111.800781 C 113.652344 113.238281 110.167969 116.246094 110.167969 119.777344 C 110.167969 124.695312 113.195312 128.683594 116.957031 128.683594 " fill-opacity="1" fill-rule="nonzero"/><path fill="#ffbd59" d="M 265.058594 221.085938 C 257.449219 212.679688 243.253906 206.140625 216.214844 191.398438 C 194.183594 244.777344 203.410156 222.429688 195.710938 241.0625 C 194.390625 232.90625 194.320312 232.453125 193.023438 224.273438 C 193.707031 222.609375 193.613281 222.839844 193.933594 222.085938 C 194.34375 216.914062 196.257812 212.472656 198.148438 209.238281 C 199.605469 206.777344 197.785156 203.679688 194.9375 203.679688 C 167.050781 203.679688 181.5625 206.207031 182.816406 222.085938 C 183.136719 222.816406 183.042969 222.589844 183.726562 224.273438 C 182.429688 232.453125 182.359375 232.90625 181.039062 241.0625 C 176.027344 228.921875 178.738281 235.503906 160.535156 191.398438 C 133.972656 205.890625 119.757812 213.109375 112.011719 221.039062 C 102.011719 231.269531 102.875 242.636719 101.964844 272.296875 C 101.875 274.804688 102.191406 277.21875 102.761719 279.542969 C 105.632812 291.226562 116.136719 299.929688 128.777344 299.929688 L 247.972656 299.929688 C 260.613281 299.929688 271.117188 291.226562 273.988281 279.542969 C 274.558594 277.21875 274.875 274.804688 274.785156 272.296875 C 273.894531 242.726562 273.757812 230.675781 265.058594 221.085938 " fill-opacity="1" fill-rule="nonzero"/></svg>